<svg xmlns="http://www.w3.org/2000/svg" width="700.7" height="177.4" viewBox="0 0 700.7 177.4"><g id="Layer_2" data-name="Layer 2"><g id="Layer_1-2" data-name="Layer 1"><path d="M215.1,48.4h23.2V60.3H215.1v91.5c0,9.2,1.2,13.5,9.2,13.5,3.9,0,8.5-1.2,14-2.4v11.6a70.8,70.8,0,0,1-17.9,2.7c-16.2,0-19.8-8.2-19.8-25.4V60.3H183.4V48.4h17.2V12.3h14.5Z" fill="#fff"/><path d="M264.7,0h14.5V68c9.5-15,23.5-22.7,41.7-22.7s30.7,6.7,37.5,17.6c5.1,8.3,5.1,19.4,5.1,34.7V174H348.9V97.8c0-26.9-4.6-39.7-31-39.7-22.9,0-38.7,16-38.7,41.9v74H264.7Z" fill="#fff"/><path d="M481.6,102.1c-1.2-27.8-16.2-44-38.7-44s-38.5,16.4-39.9,44ZM403,114.7c0,31.5,16.4,49.9,40.6,49.9,19.6,0,33.9-10.9,36.8-29.3h14.5c-3.1,25.4-23.4,42.1-52.2,42.1-33.9,0-54.8-23.9-54.8-65.6S409,45.3,443.1,45.3s53.5,23,53.5,63.9V114H403Z" fill="#fff"/><path d="M544.1,48.4h23.2V60.3H544.1v91.5c0,9.2,1.2,13.5,9.2,13.5,3.8,0,8.4-1.2,14-2.4v11.6a70.8,70.8,0,0,1-17.9,2.7c-16.2,0-19.8-8.2-19.8-25.4V60.3H512.4V48.4h17.2V12.3h14.5Z" fill="#fff"/><path d="M627.3,114c-18.4,4.8-28,13.8-28,26.6,0,14.3,10.8,23.8,28.3,23.8,26.1,0,44.3-14.6,44.3-38.8l-.3-17.6c-10.6,4.1-25.9,5-44.3,6m-1.4,63.2c-25.7,0-41.7-14.5-41.7-36.3,0-14.5,7.1-25.4,20.1-31.5s28.6-6.3,45.3-7.7c17.7-3.7,22-3.4,22-16.3,0-18.8-8.2-27.3-31.2-27.3s-34.6,9.4-35.6,27.8H590.5c.5-24.7,19.2-40.6,49.9-40.6s46,13,46,38v68.5c0,8.2.2,11.6,9,11.6a41.8,41.8,0,0,0,5.3-.3V174a50,50,0,0,1-10.4,1.2c-11.9,0-17.9-5.8-17.9-17.4v-1.9c-13.4,14.3-28.8,21.3-46.5,21.3" fill="#fff"/><path d="M81.1,26.3A67.1,67.1,0,1,0,128.4,46,67.2,67.2,0,0,0,81.1,26.3M23.7,36a81.1,81.1,0,1,1,0,114.7A81.1,81.1,0,0,1,23.7,36" fill="#ef3b39"/><path d="M130.8,93.2h0a60.6,60.6,0,0,0-6.6-28A14.8,14.8,0,0,1,121,76.7c-2,2.6-5.4,4.5-9.8,5.8s-20.5,2.1-29.9,2.3h-.5c-9.3-.2-24.2-.9-29.8-2.3s-7.8-3.2-9.9-5.8a15.7,15.7,0,0,1-3.2-11.5,62.9,62.9,0,0,0,0,56.1,15.7,15.7,0,0,1,3.2-11.5c2.1-2.6,5.5-4.5,9.9-5.8s20.5-2.1,29.8-2.3h.5c9.4.2,24.2.9,29.9,2.3s7.8,3.2,9.8,5.8a14.8,14.8,0,0,1,3.2,11.5,61.3,61.3,0,0,0,6.6-28.1" fill="#ef3b39"/></g></g></svg>